<svg width="96" height="48" viewBox="0 0 96 48" fill="none" xmlns="http://www.w3.org/2000/svg">
<rect width="96" height="48" rx="8" fill="#488EF6" fill-opacity="0.74"/>
<path d="M34.5883 24.373C37.2743 24.05 39.1613 22.979 40.1643 21.568C41.1673 22.979 43.0543 24.05 45.7063 24.373L46.5053 22.605C43.2923 22.248 41.5923 20.701 41.3203 19.375H45.9613V17.59H41.2693V15.839H39.0253V17.59H34.3673V19.375H38.9913C38.7363 20.735 37.0703 22.248 33.8063 22.605L34.5883 24.373ZM47.2533 25.172H33.1093V26.991H39.0253V31.496H41.2693V26.991H47.2533V25.172ZM49.445 17.403V19.222H54.562C54.154 22.69 52.216 25.172 48.578 27.042L49.836 28.759C55.038 26.124 56.823 22.095 56.823 17.403H49.445ZM63.181 21.772H60.988V15.788H58.744V31.428H60.988V23.625H63.181V21.772Z" fill="#F5F5F5"/>
</svg>
